It has taken 10 years, two little Fockers with wife Pam (Polo) and countless hurdles for Greg to finally get "in" with his tightly wound father-in-law, Jack. After the cash-strapped dad takes a job moonlighting for a drug company, however, Jack's suspicions about his favorite male nurse come roaring back. When Greg and Pam's entire clan-including Pam's lovelorn ex, Kevin (Owen Wilson)-descends for the twins' birthday party, Greg must prove to the skeptical Jack that he's fully capable as the man of the house. But with all the misunderstandings, spying and covert missions, will Greg pass Jack's final test and become the family's next patriarch...or will the 
circle of trust be broken for good?



	Robert De Niro	 ...	
Jack Byrnes
 	Ben Stiller	 ...	
Greg Focker
 	Owen Wilson	 ...	
Kevin Rawley
 	Dustin Hoffman	 ...	
Bernie Focker
 	Barbra Streisan  ...	
Roz Focker
 	Blythe Danner	 ...	
Dina Byrnes
 	Teri Polo	 ...	
Pam Focker


Format                           : AVI
Format/Info                      : Audio Video Interleave
File size                        : 1.26 GiB
Duration                         : 1h 38mn
Overall bit rate                 : 1 829 Kbps
Writing application              : VirtualDubMod 1.5.4.1 (build 2178/release)
Writing library                  : VirtualDubMod build 2178/release

Video
ID                               : 0
Format                           : MPEG-4 Visual
Format profile                   : Advanced Simple@L5
Format settings, BVOP            : No
Format settings, QPel            : No
Format settings, GMC             : No warppoints
Format settings, Matrix          : Custom
Codec ID                         : XVID
Codec ID/Hint                    : XviD
Duration                         : 1h 38mn
Bit rate                         : 1 720 Kbps
Width                            : 720 pixels
Height                           : 352 pixels
Display aspect ratio             : 2.045
Frame rate                       : 23.976 fps
Color space                      : YUV
Chroma subsampling               : 4:2:0
Bit depth                        : 8 bits
Scan type                        : Progressive
Compression mode                 : Lossy
Bits/(Pixel*Frame)               : 0.283
Stream size                      : 1.19 GiB (94%)
Writing library                  : XviD 1.2.1 (UTC 2008-12-04)

Audio
ID                               : 1
Format                           : MPEG Audio
Format version                   : Version 1
Format profile                   : Layer 3
Mode                             : Joint stereo
Mode extension                   : MS Stereo
Codec ID                         : 55
Codec ID/Hint                    : MP3
Duration                         : 1h 33mn
Bit rate mode                    : Variable
Bit rate                         : 101 Kbps
Nominal bit rate                 : 128 Kbps
Channel(s)                       : 2 channels
Sampling rate                    : 48.0 KHz
Compression mode                 : Lossy
Stream size                      : 68.0 MiB (5%)
Alignment                        : Aligned on interleaves
Interleave, duration             : 25 ms (0.60 video frame)
Interleave, preload duration     : 523 ms
Writing library                  : LAME3.98r

 
http://img820.imageshack.us/img820/9645/vlcsnap2011020920h47m17.png[/img]
[img]http://img14.imageshack.us/img14/36/vlcsnap2011020920h48m26.png[/img]
[img]http://img806.imageshack.us/img806/9472/vlcsnap2011020920h50m06.png[/img]

